<?xml version="1.0" standalone="no"?>
<!DOCTYPE svg PUBLIC "-//W3C//DTD SVG 20010904//EN"
 "http://www.w3.org/TR/2001/REC-SVG-20010904/DTD/svg10.dtd">
<svg version="1.0" xmlns="http://www.w3.org/2000/svg"
 width="640.000000pt" height="640.000000pt" viewBox="0 0 640.000000 640.000000"
 preserveAspectRatio="xMidYMid meet">
<metadata>
Created by potrace 1.16, written by Peter Selinger 2001-2019
</metadata>
<g transform="translate(0.000000,640.000000) scale(0.100000,-0.100000)"
fill="#000000" stroke="none">
<path d="M3140 5636 c-107 -31 -169 -83 -255 -216 -36 -55 -85 -115 -116 -141
-65 -55 -150 -109 -173 -109 -21 0 -109 -44 -124 -62 -6 -8 -53 -34 -104 -57
-186 -86 -265 -126 -358 -181 -52 -32 -123 -71 -157 -88 -54 -28 -113 -83
-113 -107 0 -5 -13 -29 -29 -54 -16 -25 -53 -107 -81 -181 -28 -74 -66 -162
-84 -195 -19 -33 -39 -85 -46 -115 -7 -31 -40 -104 -75 -165 -112 -199 -195
-371 -195 -405 0 -9 28 -39 62 -66 33 -27 77 -62 97 -78 20 -15 78 -48 129
-73 50 -25 92 -48 92 -52 0 -3 -7 -28 -15 -54 -18 -61 -8 -87 35 -87 32 0 130
57 152 89 9 13 31 22 65 27 l52 6 16 -38 c14 -34 14 -44 1 -99 -8 -33 -20 -85
-27 -115 -20 -83 -15 -440 10 -775 29 -392 41 -569 51 -770 14 -287 39 -688
44 -725 3 -19 10 -105 16 -190 15 -213 11 -203 74 -195 28 4 60 12 71 18 11 6
89 12 175 14 85 1 283 12 440 22 251 18 482 29 1010 50 80 3 173 5 207 3 55
-3 62 -5 65 -25 5 -34 44 -47 151 -47 l97 0 1 28 c1 15 3 95 4 177 1 83 10
206 19 275 9 69 23 190 31 270 9 80 22 192 30 250 8 58 17 168 21 245 3 77 10
158 16 179 5 22 13 87 18 145 5 58 14 144 21 191 21 134 17 653 -5 755 -20 91
-43 354 -33 378 5 13 19 17 60 17 91 0 117 -8 118 -39 0 -14 8 -39 18 -56 15
-26 24 -30 68 -33 60 -4 68 8 52 71 -16 60 -1 91 58 119 31 15 49 30 51 44 2
13 19 28 50 42 78 36 119 63 158 103 l36 37 -38 114 c-57 171 -82 233 -134
345 -27 56 -51 117 -55 135 -4 18 -14 42 -21 53 -7 11 -29 58 -49 105 -33 77
-49 125 -90 274 -19 67 -131 182 -213 218 -31 14 -106 48 -167 76 -60 27 -121
53 -135 57 -14 4 -29 11 -35 15 -5 5 -47 27 -92 49 -46 23 -97 54 -115 70 -41
36 -107 71 -132 71 -10 0 -42 13 -70 30 -101 58 -159 114 -236 225 -120 173
-240 239 -370 201z m182 -345 c51 -27 127 -68 168 -90 41 -23 99 -54 128 -68
28 -15 52 -30 52 -34 0 -23 -271 -97 -390 -106 -88 -7 -301 11 -400 33 -100
22 -170 44 -170 52 0 4 15 15 33 23 17 8 84 44 147 79 214 118 295 159 317
159 13 1 64 -21 115 -48z"/>
</g>
</svg>
